<svg width="1527" height="10" xmlns="http://www.w3.org/2000/svg">
 <g>
  <title>Layer 1</title>
  <path fill="#ed1027" stroke="#000" stroke-width="null" stroke-dasharray="null" stroke-opacity="null" opacity="undefined" d="m62.06628,21.23315l-27.73459,-30.00001l18.26541,0l27.73459,30.00001l-27.73459,29.99999l-18.26541,0l27.73459,-29.99999z" id="svg_2"/>
  <path fill="#007f3f" stroke="#000" stroke-width="null" stroke-dasharray="null" stroke-opacity="null" fill-opacity="null" opacity="undefined" d="m81.06628,21.23315l-27.73459,-30.00001l18.26541,0l27.73459,30.00001l-27.73459,29.99999l-18.26541,0l27.73459,-29.99999z" id="svg_3"/>
  <path fill="#ffffff" stroke="#000" stroke-width="null" stroke-dasharray="null" stroke-opacity="null" opacity="undefined" d="m100.06628,21.23315l-27.73459,-30.00001l18.26541,0l27.73459,30.00001l-27.73459,29.99999l-18.26541,0l27.73459,-29.99999z" id="svg_4"/>
  <path fill="#ed1027" stroke="#000" stroke-width="null" stroke-dasharray="null" stroke-opacity="null" opacity="undefined" d="m119.06628,21.23315l-27.73459,-30.00001l18.26541,0l27.73459,30.00001l-27.73459,29.99999l-18.26541,0l27.73459,-29.99999z" id="svg_5"/>
  <path fill="#007f3f" stroke="#000" stroke-width="null" stroke-dasharray="null" stroke-opacity="null" fill-opacity="null" opacity="undefined" d="m138.06628,21.23315l-27.73459,-30.00001l18.26541,0l27.73459,30.00001l-27.73459,29.99999l-18.26541,0l27.73459,-29.99999z" id="svg_6"/>
  <path fill="#ffffff" stroke="#000" stroke-width="null" stroke-dasharray="null" stroke-opacity="null" opacity="undefined" d="m157.06628,21.23315l-27.73459,-30.00001l18.26541,0l27.73459,30.00001l-27.73459,29.99999l-18.26541,0l27.73459,-29.99999z" id="svg_7"/>
  <path fill="#ed1027" stroke="#000" stroke-width="null" stroke-dasharray="null" stroke-opacity="null" opacity="undefined" d="m176.06628,21.23315l-27.73459,-30.00001l18.26541,0l27.73459,30.00001l-27.73459,29.99999l-18.26541,0l27.73459,-29.99999z" id="svg_8"/>
  <path fill="#007f3f" stroke="#000" stroke-width="null" stroke-dasharray="null" stroke-opacity="null" fill-opacity="null" opacity="undefined" d="m195.06628,21.23315l-27.73459,-30.00001l18.26541,0l27.73459,30.00001l-27.73459,29.99999l-18.26541,0l27.73459,-29.99999z" id="svg_9"/>
  <path fill="#ffffff" stroke="#000" stroke-width="null" stroke-dasharray="null" stroke-opacity="null" opacity="undefined" d="m214.06628,21.23315l-27.73459,-30.00001l18.26541,0l27.73459,30.00001l-27.73459,29.99999l-18.26541,0l27.73459,-29.99999z" id="svg_10"/>
  <path fill="#ed1027" stroke="#000" stroke-width="null" stroke-dasharray="null" stroke-opacity="null" opacity="undefined" d="m233.06628,21.23315l-27.73459,-30.00001l18.26541,0l27.73459,30.00001l-27.73459,29.99999l-18.26541,0l27.73459,-29.99999z" id="svg_11"/>
  <path fill="#007f3f" stroke="#000" stroke-width="null" stroke-dasharray="null" stroke-opacity="null" fill-opacity="null" opacity="undefined" d="m252.06628,21.23315l-27.73459,-30.00001l18.26541,0l27.73459,30.00001l-27.73459,29.99999l-18.26541,0l27.73459,-29.99999z" id="svg_12"/>
  <path fill="#ffffff" stroke="#000" stroke-width="null" stroke-dasharray="null" stroke-opacity="null" opacity="undefined" d="m271.06628,21.23315l-27.73459,-30.00001l18.26541,0l27.73459,30.00001l-27.73459,29.99999l-18.26541,0l27.73459,-29.99999z" id="svg_13"/>
  <path fill="#ed1027" stroke="#000" stroke-width="null" stroke-dasharray="null" stroke-opacity="null" opacity="undefined" d="m290.06628,21.23315l-27.73459,-30.00001l18.26541,0l27.73459,30.00001l-27.73459,29.99999l-18.26541,0l27.73459,-29.99999z" id="svg_14"/>
  <path fill="#007f3f" stroke="#000" stroke-width="null" stroke-dasharray="null" stroke-opacity="null" fill-opacity="null" opacity="undefined" d="m309.06628,21.23315l-27.73459,-30.00001l18.26541,0l27.73459,30.00001l-27.73459,29.99999l-18.26541,0l27.73459,-29.99999z" id="svg_15"/>
  <path fill="#ffffff" stroke="#000" stroke-width="null" stroke-dasharray="null" stroke-opacity="null" opacity="undefined" d="m328.06628,21.23315l-27.73459,-30.00001l18.26541,0l27.73459,30.00001l-27.73459,29.99999l-18.26541,0l27.73459,-29.99999z" id="svg_16"/>
  <path fill="#ed1027" stroke="#000" stroke-width="null" stroke-dasharray="null" stroke-opacity="null" opacity="undefined" d="m347.06628,21.23315l-27.73459,-30.00001l18.26541,0l27.73459,30.00001l-27.73459,29.99999l-18.26541,0l27.73459,-29.99999z" id="svg_17"/>
  <path fill="#007f3f" stroke="#000" stroke-width="null" stroke-dasharray="null" stroke-opacity="null" fill-opacity="null" opacity="undefined" d="m365.06628,20.23315l-27.73459,-30.00001l18.26541,0l27.73459,30.00001l-27.73459,29.99999l-18.26541,0l27.73459,-29.99999z" id="svg_18"/>
  <path fill="#ffffff" stroke="#000" stroke-width="null" stroke-dasharray="null" stroke-opacity="null" opacity="undefined" d="m384.06628,20.23315l-27.73459,-30.00001l18.26541,0l27.73459,30.00001l-27.73459,29.99999l-18.26541,0l27.73459,-29.99999z" id="svg_19"/>
  <path fill="#ed1027" stroke="#000" stroke-width="null" stroke-dasharray="null" stroke-opacity="null" opacity="undefined" d="m403.06628,20.23315l-27.73459,-30.00001l18.26541,0l27.73459,30.00001l-27.73459,29.99999l-18.26541,0l27.73459,-29.99999z" id="svg_20"/>
  <path fill="#007f3f" stroke="#000" stroke-width="null" stroke-dasharray="null" stroke-opacity="null" fill-opacity="null" opacity="undefined" d="m421.06628,20.23315l-27.73459,-30.00001l18.26541,0l27.73459,30.00001l-27.73459,29.99999l-18.26541,0l27.73459,-29.99999z" id="svg_21"/>
  <path fill="#ffffff" stroke="#000" stroke-width="null" stroke-dasharray="null" stroke-opacity="null" opacity="undefined" d="m440.06628,20.23315l-27.73459,-30.00001l18.26541,0l27.73459,30.00001l-27.73459,29.99999l-18.26541,0l27.73459,-29.99999z" id="svg_22"/>
  <path fill="#ed1027" stroke="#000" stroke-width="null" stroke-dasharray="null" stroke-opacity="null" opacity="undefined" d="m459.06628,20.23315l-27.73459,-30.00001l18.26541,0l27.73459,30.00001l-27.73459,29.99999l-18.26541,0l27.73459,-29.99999z" id="svg_23"/>
  <path fill="#007f3f" stroke="#000" stroke-width="null" stroke-dasharray="null" stroke-opacity="null" fill-opacity="null" opacity="undefined" d="m478.06628,20.23315l-27.73459,-30.00001l18.26541,0l27.73459,30.00001l-27.73459,29.99999l-18.26541,0l27.73459,-29.99999z" id="svg_24"/>
  <path fill="#ffffff" stroke="#000" stroke-width="null" stroke-dasharray="null" stroke-opacity="null" opacity="undefined" d="m497.06628,20.23315l-27.73459,-30.00001l18.26541,0l27.73459,30.00001l-27.73459,29.99999l-18.26541,0l27.73459,-29.99999z" id="svg_25"/>
  <path fill="#ed1027" stroke="#000" stroke-width="null" stroke-dasharray="null" stroke-opacity="null" opacity="undefined" d="m516.06628,20.23315l-27.73459,-30.00001l18.26541,0l27.73459,30.00001l-27.73459,29.99999l-18.26541,0l27.73459,-29.99999z" id="svg_26"/>
  <path fill="#007f3f" stroke="#000" stroke-width="null" stroke-dasharray="null" stroke-opacity="null" fill-opacity="null" opacity="undefined" d="m535.06628,20.23315l-27.73459,-30.00001l18.26541,0l27.73459,30.00001l-27.73459,29.99999l-18.26541,0l27.73459,-29.99999z" id="svg_27"/>
  <path fill="#ffffff" stroke="#000" stroke-width="null" stroke-dasharray="null" stroke-opacity="null" opacity="undefined" d="m554.06628,20.23315l-27.73459,-30.00001l18.26541,0l27.73459,30.00001l-27.73459,29.99999l-18.26541,0l27.73459,-29.99999z" id="svg_28"/>
  <path fill="#ed1027" stroke="#000" stroke-width="null" stroke-dasharray="null" stroke-opacity="null" opacity="undefined" d="m573.06628,20.23315l-27.73459,-30.00001l18.26541,0l27.73459,30.00001l-27.73459,29.99999l-18.26541,0l27.73459,-29.99999z" id="svg_29"/>
  <path fill="#007f3f" stroke="#000" stroke-width="null" stroke-dasharray="null" stroke-opacity="null" fill-opacity="null" opacity="undefined" d="m592.06628,20.23315l-27.73459,-30.00001l18.26541,0l27.73459,30.00001l-27.73459,29.99999l-18.26541,0l27.73459,-29.99999z" id="svg_30"/>
  <path fill="#ffffff" stroke="#000" stroke-width="null" stroke-dasharray="null" stroke-opacity="null" opacity="undefined" d="m611.06628,20.23315l-27.73459,-30.00001l18.26541,0l27.73459,30.00001l-27.73459,29.99999l-18.26541,0l27.73459,-29.99999z" id="svg_31"/>
  <path fill="#ed1027" stroke="#000" stroke-width="null" stroke-dasharray="null" stroke-opacity="null" opacity="undefined" d="m630.06628,20.23315l-27.73459,-30.00001l18.26541,0l27.73459,30.00001l-27.73459,29.99999l-18.26541,0l27.73459,-29.99999z" id="svg_32"/>
  <path fill="#007f3f" stroke="#000" stroke-width="null" stroke-dasharray="null" stroke-opacity="null" fill-opacity="null" opacity="undefined" d="m649.06628,20.23315l-27.73459,-30.00001l18.26541,0l27.73459,30.00001l-27.73459,29.99999l-18.26541,0l27.73459,-29.99999z" id="svg_33"/>
  <path fill="#ffffff" stroke="#000" stroke-width="null" stroke-dasharray="null" stroke-opacity="null" opacity="undefined" d="m668.06628,20.23315l-27.73459,-30.00001l18.26541,0l27.73459,30.00001l-27.73459,29.99999l-18.26541,0l27.73459,-29.99999z" id="svg_34"/>
  <path fill="#ed1027" stroke="#000" stroke-width="null" stroke-dasharray="null" stroke-opacity="null" opacity="undefined" d="m687.06628,20.23315l-27.73459,-30.00001l18.26541,0l27.73459,30.00001l-27.73459,29.99999l-18.26541,0l27.73459,-29.99999z" id="svg_35"/>
  <path fill="#007f3f" stroke="#000" stroke-width="null" stroke-dasharray="null" stroke-opacity="null" fill-opacity="null" opacity="undefined" d="m706.06628,20.23315l-27.73459,-30.00001l18.26541,0l27.73459,30.00001l-27.73459,29.99999l-18.26541,0l27.73459,-29.99999z" id="svg_36"/>
  <path fill="#ffffff" stroke="#000" stroke-width="null" stroke-dasharray="null" stroke-opacity="null" opacity="undefined" d="m725.06628,20.23315l-27.73459,-30.00001l18.26541,0l27.73459,30.00001l-27.73459,29.99999l-18.26541,0l27.73459,-29.99999z" id="svg_37"/>
  <path fill="#ed1027" stroke="#000" stroke-width="null" stroke-dasharray="null" stroke-opacity="null" opacity="undefined" d="m744.06628,20.23315l-27.73459,-30.00001l18.26541,0l27.73459,30.00001l-27.73459,29.99999l-18.26541,0l27.73459,-29.99999z" id="svg_38"/>
  <path fill="#007f3f" stroke="#000" stroke-width="null" stroke-dasharray="null" stroke-opacity="null" fill-opacity="null" opacity="undefined" d="m763.06628,20.23315l-27.73459,-30.00001l18.26541,0l27.73459,30.00001l-27.73459,29.99999l-18.26541,0l27.73459,-29.99999z" id="svg_39"/>
  <path fill="#ffffff" stroke="#000" stroke-width="null" stroke-dasharray="null" stroke-opacity="null" opacity="undefined" d="m782.06628,20.23315l-27.73459,-30.00001l18.26541,0l27.73459,30.00001l-27.73459,29.99999l-18.26541,0l27.73459,-29.99999z" id="svg_40"/>
  <path fill="#ed1027" stroke="#000" stroke-width="null" stroke-dasharray="null" stroke-opacity="null" opacity="undefined" d="m801.06628,20.23315l-27.73459,-30.00001l18.26541,0l27.73459,30.00001l-27.73459,29.99999l-18.26541,0l27.73459,-29.99999z" id="svg_41"/>
  <path fill="#007f3f" stroke="#000" stroke-width="null" stroke-dasharray="null" stroke-opacity="null" fill-opacity="null" opacity="undefined" d="m820.06628,20.23315l-27.73459,-30.00001l18.26541,0l27.73459,30.00001l-27.73459,29.99999l-18.26541,0l27.73459,-29.99999z" id="svg_42"/>
  <path fill="#ffffff" stroke="#000" stroke-width="null" stroke-dasharray="null" stroke-opacity="null" opacity="undefined" d="m839.06628,20.23315l-27.73459,-30.00001l18.26541,0l27.73459,30.00001l-27.73459,29.99999l-18.26541,0l27.73459,-29.99999z" id="svg_43"/>
  <path fill="#ed1027" stroke="#000" stroke-width="null" stroke-dasharray="null" stroke-opacity="null" opacity="undefined" d="m858.06628,20.23315l-27.73459,-30.00001l18.26541,0l27.73459,30.00001l-27.73459,29.99999l-18.26541,0l27.73459,-29.99999z" id="svg_44"/>
  <path fill="#007f3f" stroke="#000" stroke-width="null" stroke-dasharray="null" stroke-opacity="null" fill-opacity="null" opacity="undefined" d="m876.06628,19.23315l-27.73459,-30.00001l18.26541,0l27.73459,30.00001l-27.73459,29.99999l-18.26541,0l27.73459,-29.99999z" id="svg_45"/>
  <path fill="#ffffff" stroke="#000" stroke-width="null" stroke-dasharray="null" stroke-opacity="null" opacity="undefined" d="m895.06628,19.23315l-27.73459,-30.00001l18.26541,0l27.73459,30.00001l-27.73459,29.99999l-18.26541,0l27.73459,-29.99999z" id="svg_46"/>
  <path fill="#ed1027" stroke="#000" stroke-width="null" stroke-dasharray="null" stroke-opacity="null" opacity="undefined" d="m914.06628,19.23315l-27.73459,-30.00001l18.26541,0l27.73459,30.00001l-27.73459,29.99999l-18.26541,0l27.73459,-29.99999z" id="svg_47"/>
  <path fill="#007f3f" stroke="#000" stroke-width="null" stroke-dasharray="null" stroke-opacity="null" fill-opacity="null" opacity="undefined" d="m932.06628,19.23315l-27.73459,-30.00001l18.26541,0l27.73459,30.00001l-27.73459,29.99999l-18.26541,0l27.73459,-29.99999z" id="svg_48"/>
  <path fill="#ffffff" stroke="#000" stroke-width="null" stroke-dasharray="null" stroke-opacity="null" opacity="undefined" d="m951.06628,19.23315l-27.73459,-30.00001l18.26541,0l27.73459,30.00001l-27.73459,29.99999l-18.26541,0l27.73459,-29.99999z" id="svg_49"/>
  <path fill="#ed1027" stroke="#000" stroke-width="null" stroke-dasharray="null" stroke-opacity="null" opacity="undefined" d="m970.06628,19.23315l-27.73459,-30.00001l18.26541,0l27.73459,30.00001l-27.73459,29.99999l-18.26541,0l27.73459,-29.99999z" id="svg_50"/>
  <path fill="#007f3f" stroke="#000" stroke-width="null" stroke-dasharray="null" stroke-opacity="null" fill-opacity="null" opacity="undefined" d="m989.06628,19.23315l-27.73459,-30.00001l18.26541,0l27.73459,30.00001l-27.73459,29.99999l-18.26541,0l27.73459,-29.99999z" id="svg_52"/>
  <path fill="#ffffff" stroke="#000" stroke-width="null" stroke-dasharray="null" stroke-opacity="null" opacity="undefined" d="m1008.06628,19.23315l-27.73459,-30.00001l18.26541,0l27.73459,30.00001l-27.73459,29.99999l-18.26541,0l27.73459,-29.99999z" id="svg_53"/>
  <path fill="#ed1027" stroke="#000" stroke-width="null" stroke-dasharray="null" stroke-opacity="null" opacity="undefined" d="m1027.06628,19.23315l-27.73459,-30.00001l18.26541,0l27.73459,30.00001l-27.73459,29.99999l-18.26541,0l27.73459,-29.99999z" id="svg_54"/>
  <path fill="#ffffff" stroke="#000" stroke-width="null" stroke-dasharray="null" stroke-opacity="null" opacity="undefined" d="m1008.06628,19.23315l-27.73459,-30.00001l18.26541,0l27.73459,30.00001l-27.73459,29.99999l-18.26541,0l27.73459,-29.99999z" id="svg_122"/>
  <path fill="#ed1027" stroke="#000" stroke-width="null" stroke-dasharray="null" stroke-opacity="null" opacity="undefined" d="m1027.06628,19.23315l-27.73459,-30.00001l18.26541,0l27.73459,30.00001l-27.73459,29.99999l-18.26541,0l27.73459,-29.99999z" id="svg_123"/>
  <path fill="#ed1027" stroke="#000" stroke-width="null" stroke-dasharray="null" stroke-opacity="null" opacity="undefined" d="m4.71142,20.56651l-27.73459,-30.00001l18.26541,0l27.73459,30.00001l-27.73459,29.99999l-18.26541,0l27.73459,-29.99999z" id="svg_124"/>
  <path fill="#007f3f" stroke="#000" stroke-width="null" stroke-dasharray="null" stroke-opacity="null" fill-opacity="null" opacity="undefined" d="m23.71142,20.56651l-27.73459,-30.00001l18.26541,0l27.73459,30.00001l-27.73459,29.99999l-18.26541,0l27.73459,-29.99999z" id="svg_125"/>
  <path fill="#ffffff" stroke="#000" stroke-width="null" stroke-dasharray="null" stroke-opacity="null" opacity="undefined" d="m42.71142,20.56651l-27.73459,-30.00001l18.26541,0l27.73459,30.00001l-27.73459,29.99999l-18.26541,0l27.73459,-29.99999z" id="svg_126"/>
  <path fill="#ffffff" stroke="#000" stroke-width="null" stroke-dasharray="null" stroke-opacity="null" opacity="undefined" d="m42.71142,20.56651l-27.73459,-30.00001l18.26541,0l27.73459,30.00001l-27.73459,29.99999l-18.26541,0l27.73459,-29.99999z" id="svg_127"/>
  <path fill="#ed1027" stroke="#000" stroke-width="null" stroke-dasharray="null" stroke-opacity="null" opacity="undefined" d="m970.06628,19.23316l-27.73459,-30.00001l18.26541,0l27.73459,30.00001l-27.73459,29.99999l-18.26541,0l27.73459,-29.99999z" id="svg_128"/>
  <path fill="#007f3f" stroke="#000" stroke-width="null" stroke-dasharray="null" stroke-opacity="null" fill-opacity="null" opacity="undefined" d="m989.06628,19.23316l-27.73459,-30.00001l18.26541,0l27.73459,30.00001l-27.73459,29.99999l-18.26541,0l27.73459,-29.99999z" id="svg_129"/>
  <path fill="#ffffff" stroke="#000" stroke-width="null" stroke-dasharray="null" stroke-opacity="null" opacity="undefined" d="m1008.06628,19.23316l-27.73459,-30.00001l18.26541,0l27.73459,30.00001l-27.73459,29.99999l-18.26541,0l27.73459,-29.99999z" id="svg_130"/>
  <path fill="#ffffff" stroke="#000" stroke-width="null" stroke-dasharray="null" stroke-opacity="null" opacity="undefined" d="m1008.06628,19.23316l-27.73459,-30.00001l18.26541,0l27.73459,30.00001l-27.73459,29.99999l-18.26541,0l27.73459,-29.99999z" id="svg_131"/>
  <path fill="#007f3f" stroke="#000" stroke-width="null" stroke-dasharray="null" stroke-opacity="null" fill-opacity="null" opacity="undefined" d="m1046.7355,19.23316l-27.73459,-30.00001l18.26541,0l27.73459,30.00001l-27.73459,29.99999l-18.26541,0l27.73459,-29.99999z" id="svg_132"/>
  <path fill="#ffffff" stroke="#000" stroke-width="null" stroke-dasharray="null" stroke-opacity="null" opacity="undefined" d="m1065.7355,19.23316l-27.73459,-30.00001l18.26541,0l27.73459,30.00001l-27.73459,29.99999l-18.26541,0l27.73459,-29.99999z" id="svg_133"/>
  <path fill="#ed1027" stroke="#000" stroke-width="null" stroke-dasharray="null" stroke-opacity="null" opacity="undefined" d="m1084.7355,19.23316l-27.73459,-30.00001l18.26541,0l27.73459,30.00001l-27.73459,29.99999l-18.26541,0l27.73459,-29.99999z" id="svg_134"/>
  <path fill="#007f3f" stroke="#000" stroke-width="null" stroke-dasharray="null" stroke-opacity="null" fill-opacity="null" opacity="undefined" d="m1103.7355,19.23316l-27.73459,-30.00001l18.26541,0l27.73459,30.00001l-27.73459,29.99999l-18.26541,0l27.73459,-29.99999z" id="svg_135"/>
  <path fill="#ffffff" stroke="#000" stroke-width="null" stroke-dasharray="null" stroke-opacity="null" opacity="undefined" d="m1122.7355,18.99663l-27.73459,-30.00001l18.26541,0l27.73459,30.00001l-27.73459,29.99999l-18.26541,0l27.73459,-29.99999z" id="svg_136"/>
  <path fill="#ffffff" stroke="#000" stroke-width="null" stroke-dasharray="null" stroke-opacity="null" opacity="undefined" d="m1122.7355,18.99663l-27.73459,-30.00001l18.26541,0l27.73459,30.00001l-27.73459,29.99999l-18.26541,0l27.73459,-29.99999z" id="svg_137"/>
  <path fill="#ed1027" stroke="#000" stroke-width="null" stroke-dasharray="null" stroke-opacity="null" opacity="undefined" d="m1084.7355,19.23316l-27.73459,-30.00001l18.26541,0l27.73459,30.00001l-27.73459,29.99999l-18.26541,0l27.73459,-29.99999z" id="svg_138"/>
  <path fill="#007f3f" stroke="#000" stroke-width="null" stroke-dasharray="null" stroke-opacity="null" fill-opacity="null" opacity="undefined" d="m1103.7355,19.23316l-27.73459,-30.00001l18.26541,0l27.73459,30.00001l-27.73459,29.99999l-18.26541,0l27.73459,-29.99999z" id="svg_139"/>
  <path fill="#ffffff" stroke="#000" stroke-width="null" stroke-dasharray="null" stroke-opacity="null" opacity="undefined" d="m1122.7355,18.99663l-27.73459,-30.00001l18.26541,0l27.73459,30.00001l-27.73459,29.99999l-18.26541,0l27.73459,-29.99999z" id="svg_140"/>
  <path fill="#ffffff" stroke="#000" stroke-width="null" stroke-dasharray="null" stroke-opacity="null" opacity="undefined" d="m1122.7355,18.99663l-27.73459,-30.00001l18.26541,0l27.73459,30.00001l-27.73459,29.99999l-18.26541,0l27.73459,-29.99999z" id="svg_141"/>
  <path fill="#007f3f" stroke="#000" stroke-width="null" stroke-dasharray="null" stroke-opacity="null" fill-opacity="null" opacity="undefined" d="m932.06628,19.23316l-27.73459,-30.00001l18.26541,0l27.73459,30.00001l-27.73459,29.99999l-18.26541,0l27.73459,-29.99999z" id="svg_142"/>
  <path fill="#ffffff" stroke="#000" stroke-width="null" stroke-dasharray="null" stroke-opacity="null" opacity="undefined" d="m951.06628,19.23316l-27.73459,-30.00001l18.26541,0l27.73459,30.00001l-27.73459,29.99999l-18.26541,0l27.73459,-29.99999z" id="svg_143"/>
  <path fill="#ed1027" stroke="#000" stroke-width="null" stroke-dasharray="null" stroke-opacity="null" opacity="undefined" d="m970.06628,19.23316l-27.73459,-30.00001l18.26541,0l27.73459,30.00001l-27.73459,29.99999l-18.26541,0l27.73459,-29.99999z" id="svg_144"/>
  <path fill="#007f3f" stroke="#000" stroke-width="null" stroke-dasharray="null" stroke-opacity="null" fill-opacity="null" opacity="undefined" d="m989.06628,19.23316l-27.73459,-30.00001l18.26541,0l27.73459,30.00001l-27.73459,29.99999l-18.26541,0l27.73459,-29.99999z" id="svg_145"/>
  <path fill="#ffffff" stroke="#000" stroke-width="null" stroke-dasharray="null" stroke-opacity="null" opacity="undefined" d="m1008.06628,19.23316l-27.73459,-30.00001l18.26541,0l27.73459,30.00001l-27.73459,29.99999l-18.26541,0l27.73459,-29.99999z" id="svg_146"/>
  <path fill="#ffffff" stroke="#000" stroke-width="null" stroke-dasharray="null" stroke-opacity="null" opacity="undefined" d="m1008.06628,19.23316l-27.73459,-30.00001l18.26541,0l27.73459,30.00001l-27.73459,29.99999l-18.26541,0l27.73459,-29.99999z" id="svg_147"/>
  <path fill="#ed1027" stroke="#000" stroke-width="null" stroke-dasharray="null" stroke-opacity="null" opacity="undefined" d="m970.06628,19.23316l-27.73459,-30.00001l18.26541,0l27.73459,30.00001l-27.73459,29.99999l-18.26541,0l27.73459,-29.99999z" id="svg_148"/>
  <path fill="#007f3f" stroke="#000" stroke-width="null" stroke-dasharray="null" stroke-opacity="null" fill-opacity="null" opacity="undefined" d="m989.06628,19.23316l-27.73459,-30.00001l18.26541,0l27.73459,30.00001l-27.73459,29.99999l-18.26541,0l27.73459,-29.99999z" id="svg_149"/>
  <path fill="#ffffff" stroke="#000" stroke-width="null" stroke-dasharray="null" stroke-opacity="null" opacity="undefined" d="m1008.06628,19.23316l-27.73459,-30.00001l18.26541,0l27.73459,30.00001l-27.73459,29.99999l-18.26541,0l27.73459,-29.99999z" id="svg_150"/>
  <path fill="#ffffff" stroke="#000" stroke-width="null" stroke-dasharray="null" stroke-opacity="null" opacity="undefined" d="m1008.06628,19.23316l-27.73459,-30.00001l18.26541,0l27.73459,30.00001l-27.73459,29.99999l-18.26541,0l27.73459,-29.99999z" id="svg_151"/>
  <path fill="#ed1027" stroke="#000" stroke-width="null" stroke-dasharray="null" stroke-opacity="null" opacity="undefined" d="m1142.07006,18.99662l-27.73459,-30.00001l18.26541,0l27.73459,30.00001l-27.73459,29.99999l-18.26541,0l27.73459,-29.99999z" id="svg_152"/>
  <path fill="#007f3f" stroke="#000" stroke-width="null" stroke-dasharray="null" stroke-opacity="null" fill-opacity="null" opacity="undefined" d="m1161.07006,18.99662l-27.73459,-30.00001l18.26541,0l27.73459,30.00001l-27.73459,29.99999l-18.26541,0l27.73459,-29.99999z" id="svg_153"/>
  <path fill="#ffffff" stroke="#000" stroke-width="null" stroke-dasharray="null" stroke-opacity="null" opacity="undefined" d="m1180.07006,18.99662l-27.73459,-30.00001l18.26541,0l27.73459,30.00001l-27.73459,29.99999l-18.26541,0l27.73459,-29.99999z" id="svg_154"/>
  <path fill="#ffffff" stroke="#000" stroke-width="null" stroke-dasharray="null" stroke-opacity="null" opacity="undefined" d="m1180.07006,18.99662l-27.73459,-30.00001l18.26541,0l27.73459,30.00001l-27.73459,29.99999l-18.26541,0l27.73459,-29.99999z" id="svg_155"/>
  <path fill="#ed1027" stroke="#000" stroke-width="null" stroke-dasharray="null" stroke-opacity="null" opacity="undefined" d="m1199.40478,18.99662l-27.73459,-30.00001l18.26541,0l27.73459,30.00001l-27.73459,29.99999l-18.26541,0l27.73459,-29.99999z" id="svg_156"/>
  <path fill="#007f3f" stroke="#000" stroke-width="null" stroke-dasharray="null" stroke-opacity="null" fill-opacity="null" opacity="undefined" d="m1218.40478,18.99662l-27.73459,-30.00001l18.26541,0l27.73459,30.00001l-27.73459,29.99999l-18.26541,0l27.73459,-29.99999z" id="svg_157"/>
  <path fill="#ffffff" stroke="#000" stroke-width="null" stroke-dasharray="null" stroke-opacity="null" opacity="undefined" d="m1237.40478,18.99662l-27.73459,-30.00001l18.26541,0l27.73459,30.00001l-27.73459,29.99999l-18.26541,0l27.73459,-29.99999z" id="svg_158"/>
  <path fill="#ffffff" stroke="#000" stroke-width="null" stroke-dasharray="null" stroke-opacity="null" opacity="undefined" d="m1237.40478,18.99662l-27.73459,-30.00001l18.26541,0l27.73459,30.00001l-27.73459,29.99999l-18.26541,0l27.73459,-29.99999z" id="svg_159"/>
  <path fill="#ed1027" stroke="#000" stroke-width="null" stroke-dasharray="null" stroke-opacity="null" opacity="undefined" d="m1254.0726,18.99662l-27.73459,-30.00001l18.26541,0l27.73459,30.00001l-27.73459,29.99999l-18.26541,0l27.73459,-29.99999z" id="svg_160"/>
  <path fill="#007f3f" stroke="#000" stroke-width="null" stroke-dasharray="null" stroke-opacity="null" fill-opacity="null" opacity="undefined" d="m1273.0726,18.99662l-27.73459,-30.00001l18.26541,0l27.73459,30.00001l-27.73459,29.99999l-18.26541,0l27.73459,-29.99999z" id="svg_161"/>
  <path fill="#ffffff" stroke="#000" stroke-width="null" stroke-dasharray="null" stroke-opacity="null" opacity="undefined" d="m1292.0726,18.99662l-27.73459,-30.00001l18.26541,0l27.73459,30.00001l-27.73459,29.99999l-18.26541,0l27.73459,-29.99999z" id="svg_162"/>
  <path fill="#ffffff" stroke="#000" stroke-width="null" stroke-dasharray="null" stroke-opacity="null" opacity="undefined" d="m1292.0726,18.99662l-27.73459,-30.00001l18.26541,0l27.73459,30.00001l-27.73459,29.99999l-18.26541,0l27.73459,-29.99999z" id="svg_163"/>
  <path fill="#ed1027" stroke="#000" stroke-width="null" stroke-dasharray="null" stroke-opacity="null" opacity="undefined" d="m4.71142,20.56652l-27.73459,-30.00001l18.26541,0l27.73459,30.00001l-27.73459,29.99999l-18.26541,0l27.73459,-29.99999z" id="svg_164"/>
  <path fill="#007f3f" stroke="#000" stroke-width="null" stroke-dasharray="null" stroke-opacity="null" fill-opacity="null" opacity="undefined" d="m23.71142,20.56652l-27.73459,-30.00001l18.26541,0l27.73459,30.00001l-27.73459,29.99999l-18.26541,0l27.73459,-29.99999z" id="svg_165"/>
  <path fill="#ffffff" stroke="#000" stroke-width="null" stroke-dasharray="null" stroke-opacity="null" opacity="undefined" d="m42.71142,20.56652l-27.73459,-30.00001l18.26541,0l27.73459,30.00001l-27.73459,29.99999l-18.26541,0l27.73459,-29.99999z" id="svg_166"/>
  <path fill="#ffffff" stroke="#000" stroke-width="null" stroke-dasharray="null" stroke-opacity="null" opacity="undefined" d="m42.71142,20.56652l-27.73459,-30.00001l18.26541,0l27.73459,30.00001l-27.73459,29.99999l-18.26541,0l27.73459,-29.99999z" id="svg_167"/>
  <path fill="#ed1027" stroke="#000" stroke-width="null" stroke-dasharray="null" stroke-opacity="null" opacity="undefined" d="m1311.40722,18.99662l-27.73459,-30.00001l18.26541,0l27.73459,30.00001l-27.73459,29.99999l-18.26541,0l27.73459,-29.99999z" id="svg_168"/>
  <path fill="#007f3f" stroke="#000" stroke-width="null" stroke-dasharray="null" stroke-opacity="null" fill-opacity="null" opacity="undefined" d="m1330.40722,18.99662l-27.73459,-30.00001l18.26541,0l27.73459,30.00001l-27.73459,29.99999l-18.26541,0l27.73459,-29.99999z" id="svg_169"/>
  <path fill="#ffffff" stroke="#000" stroke-width="null" stroke-dasharray="null" stroke-opacity="null" opacity="undefined" d="m1349.40722,18.99662l-27.73459,-30.00001l18.26541,0l27.73459,30.00001l-27.73459,29.99999l-18.26541,0l27.73459,-29.99999z" id="svg_170"/>
  <path fill="#ffffff" stroke="#000" stroke-width="null" stroke-dasharray="null" stroke-opacity="null" opacity="undefined" d="m1349.40722,18.99662l-27.73459,-30.00001l18.26541,0l27.73459,30.00001l-27.73459,29.99999l-18.26541,0l27.73459,-29.99999z" id="svg_171"/>
  <path fill="#ed1027" stroke="#000" stroke-width="null" stroke-dasharray="null" stroke-opacity="null" opacity="undefined" d="m1367.40848,19.23316l-27.73459,-30.00001l18.26541,0l27.73459,30.00001l-27.73459,29.99999l-18.26541,0l27.73459,-29.99999z" id="svg_368"/>
  <path fill="#007f3f" stroke="#000" stroke-width="null" stroke-dasharray="null" stroke-opacity="null" fill-opacity="null" opacity="undefined" d="m1386.40848,19.23316l-27.73459,-30.00001l18.26541,0l27.73459,30.00001l-27.73459,29.99999l-18.26541,0l27.73459,-29.99999z" id="svg_369"/>
  <path fill="#ffffff" stroke="#000" stroke-width="null" stroke-dasharray="null" stroke-opacity="null" opacity="undefined" d="m1405.40848,18.99663l-27.73459,-30.00001l18.26541,0l27.73459,30.00001l-27.73459,29.99999l-18.26541,0l27.73459,-29.99999z" id="svg_370"/>
  <path fill="#ffffff" stroke="#000" stroke-width="null" stroke-dasharray="null" stroke-opacity="null" opacity="undefined" d="m1405.40848,18.99663l-27.73459,-30.00001l18.26541,0l27.73459,30.00001l-27.73459,29.99999l-18.26541,0l27.73459,-29.99999z" id="svg_371"/>
  <path fill="#ed1027" stroke="#000" stroke-width="null" stroke-dasharray="null" stroke-opacity="null" opacity="undefined" d="m1367.40848,19.23316l-27.73459,-30.00001l18.26541,0l27.73459,30.00001l-27.73459,29.99999l-18.26541,0l27.73459,-29.99999z" id="svg_372"/>
  <path fill="#007f3f" stroke="#000" stroke-width="null" stroke-dasharray="null" stroke-opacity="null" fill-opacity="null" opacity="undefined" d="m1386.40848,19.23316l-27.73459,-30.00001l18.26541,0l27.73459,30.00001l-27.73459,29.99999l-18.26541,0l27.73459,-29.99999z" id="svg_373"/>
  <path fill="#ffffff" stroke="#000" stroke-width="null" stroke-dasharray="null" stroke-opacity="null" opacity="undefined" d="m1405.40848,18.99663l-27.73459,-30.00001l18.26541,0l27.73459,30.00001l-27.73459,29.99999l-18.26541,0l27.73459,-29.99999z" id="svg_374"/>
  <path fill="#ffffff" stroke="#000" stroke-width="null" stroke-dasharray="null" stroke-opacity="null" opacity="undefined" d="m1405.40848,18.99663l-27.73459,-30.00001l18.26541,0l27.73459,30.00001l-27.73459,29.99999l-18.26541,0l27.73459,-29.99999z" id="svg_375"/>
  <path fill="#ed1027" stroke="#000" stroke-width="null" stroke-dasharray="null" stroke-opacity="null" opacity="undefined" d="m1424.74304,18.99662l-27.73459,-30.00001l18.26541,0l27.73459,30.00001l-27.73459,29.99999l-18.26541,0l27.73459,-29.99999z" id="svg_376"/>
  <path fill="#007f3f" stroke="#000" stroke-width="null" stroke-dasharray="null" stroke-opacity="null" fill-opacity="null" opacity="undefined" d="m1443.74304,18.99662l-27.73459,-30.00001l18.26541,0l27.73459,30.00001l-27.73459,29.99999l-18.26541,0l27.73459,-29.99999z" id="svg_377"/>
  <path fill="#ffffff" stroke="#000" stroke-width="null" stroke-dasharray="null" stroke-opacity="null" opacity="undefined" d="m1462.74304,18.99662l-27.73459,-30.00001l18.26541,0l27.73459,30.00001l-27.73459,29.99999l-18.26541,0l27.73459,-29.99999z" id="svg_378"/>
  <path fill="#ffffff" stroke="#000" stroke-width="null" stroke-dasharray="null" stroke-opacity="null" opacity="undefined" d="m1462.74304,18.99662l-27.73459,-30.00001l18.26541,0l27.73459,30.00001l-27.73459,29.99999l-18.26541,0l27.73459,-29.99999z" id="svg_379"/>
  <path fill="#ed1027" stroke="#000" stroke-width="null" stroke-dasharray="null" stroke-opacity="null" opacity="undefined" d="m1482.07776,18.99662l-27.73459,-30.00001l18.26541,0l27.73459,30.00001l-27.73459,29.99999l-18.26541,0l27.73459,-29.99999z" id="svg_380"/>
  <path fill="#007f3f" stroke="#000" stroke-width="null" stroke-dasharray="null" stroke-opacity="null" fill-opacity="null" opacity="undefined" d="m1501.07776,18.99662l-27.73459,-30.00001l18.26541,0l27.73459,30.00001l-27.73459,29.99999l-18.26541,0l27.73459,-29.99999z" id="svg_381"/>
  <path fill="#ffffff" stroke="#000" stroke-width="null" stroke-dasharray="null" stroke-opacity="null" opacity="undefined" d="m1520.07776,18.99662l-27.73459,-30.00001l18.26541,0l27.73459,30.00001l-27.73459,29.99999l-18.26541,0l27.73459,-29.99999z" id="svg_382"/>
  <path fill="#ffffff" stroke="#000" stroke-width="null" stroke-dasharray="null" stroke-opacity="null" opacity="undefined" d="m1520.07776,18.99662l-27.73459,-30.00001l18.26541,0l27.73459,30.00001l-27.73459,29.99999l-18.26541,0l27.73459,-29.99999z" id="svg_383"/>
  <path fill="#ed1027" stroke="#000" stroke-width="null" stroke-dasharray="null" stroke-opacity="null" opacity="undefined" d="m1536.74558,18.99662l-27.73459,-30.00001l18.26541,0l27.73459,30.00001l-27.73459,29.99999l-18.26541,0l27.73459,-29.99999z" id="svg_384"/>
  <path fill="#007f3f" stroke="#000" stroke-width="null" stroke-dasharray="null" stroke-opacity="null" fill-opacity="null" opacity="undefined" d="m1555.74558,18.99662l-27.73459,-30.00001l18.26541,0l27.73459,30.00001l-27.73459,29.99999l-18.26541,0l27.73459,-29.99999z" id="svg_385"/>
  <path fill="#ffffff" stroke="#000" stroke-width="null" stroke-dasharray="null" stroke-opacity="null" opacity="undefined" d="m1574.74558,18.99662l-27.73459,-30.00001l18.26541,0l27.73459,30.00001l-27.73459,29.99999l-18.26541,0l27.73459,-29.99999z" id="svg_386"/>
  <path fill="#ffffff" stroke="#000" stroke-width="null" stroke-dasharray="null" stroke-opacity="null" opacity="undefined" d="m1574.74558,18.99662l-27.73459,-30.00001l18.26541,0l27.73459,30.00001l-27.73459,29.99999l-18.26541,0l27.73459,-29.99999z" id="svg_387"/>
  <path fill="#ed1027" stroke="#000" stroke-width="null" stroke-dasharray="null" stroke-opacity="null" opacity="undefined" d="m1594.0802,18.99662l-27.73459,-30.00001l18.26541,0l27.73459,30.00001l-27.73459,29.99999l-18.26541,0l27.73459,-29.99999z" id="svg_388"/>
  <path fill="#007f3f" stroke="#000" stroke-width="null" stroke-dasharray="null" stroke-opacity="null" fill-opacity="null" opacity="undefined" d="m1613.0802,18.99662l-27.73459,-30.00001l18.26541,0l27.73459,30.00001l-27.73459,29.99999l-18.26541,0l27.73459,-29.99999z" id="svg_389"/>
  <path fill="#ffffff" stroke="#000" stroke-width="null" stroke-dasharray="null" stroke-opacity="null" opacity="undefined" d="m1632.0802,18.99662l-27.73459,-30.00001l18.26541,0l27.73459,30.00001l-27.73459,29.99999l-18.26541,0l27.73459,-29.99999z" id="svg_390"/>
  <path fill="#ffffff" stroke="#000" stroke-width="null" stroke-dasharray="null" stroke-opacity="null" opacity="undefined" d="m1632.0802,18.99662l-27.73459,-30.00001l18.26541,0l27.73459,30.00001l-27.73459,29.99999l-18.26541,0l27.73459,-29.99999z" id="svg_391"/>
 </g>

</svg>