<svg width="516.037" height="516.037" xmlns="http://www.w3.org/2000/svg">

 <g>
  <title>Layer 1</title>
  <g stroke="null" id="svg_1">
   <g stroke="null" id="svg_2">
    <path stroke="null" id="svg_3" fill-rule="evenodd" fill="#f7eb12" d="m111.03999,130.19475l70.17597,0c14.48123,-34.7776 15.38968,-60.74997 15.41762,-102.62139c-48.50904,9.65996 -85.73039,51.83464 -87.84978,102.73149c0.74179,-0.08209 1.4855,-0.1101 2.25619,-0.1101z" clip-rule="evenodd"/>
   </g>
   <g stroke="null" id="svg_4">
    <path stroke="null" id="svg_5" fill-rule="evenodd" fill="#f7eb12" d="m241.17743,28.07075c0.05491,41.56719 0.9913,67.45747 15.44459,102.124l67.91786,0c0.74371,0 1.48646,0.02801 2.23018,0.1101c-2.06544,-50.0962 -38.18567,-91.74645 -85.59263,-102.2341z" clip-rule="evenodd"/>
   </g>
   <g stroke="null" id="svg_6">
    <path stroke="null" id="svg_7" fill-rule="evenodd" fill="#f7eb12" d="m111.03999,174.77041l213.49989,0c1.01827,0 2.03751,-0.08306 3.0288,-0.22117c10.8195,-1.49023 19.18917,-10.84693 19.18917,-22.08115c0,-11.50947 -8.78199,-21.03229 -19.98683,-22.16421c-0.74371,-0.08306 -1.48646,-0.1101 -2.23018,-0.1101l-67.91786,0l-75.40606,0l-70.17597,0c-0.77069,0 -1.5144,0.02801 -2.25715,0.1101c-11.17787,1.13192 -19.98683,10.65377 -19.98683,22.16421c0,11.23325 8.39665,20.59092 19.21615,22.08115c0.98937,0.13811 1.98067,0.22117 3.02688,0.22117z" clip-rule="evenodd"/>
   </g>
   <g stroke="null" id="svg_8">
    <path stroke="null" id="svg_9" fill-rule="evenodd" fill="#f7eb12" d="m181.215,130.19475l75.40606,0c-14.45329,-34.6675 -15.38968,-60.55681 -15.44459,-102.124c0,-1.51824 0,-3.03648 0,-4.58177c0,-2.65016 -2.17527,-4.82998 -4.81776,-4.82998l-34.90928,0c-2.6425,0 -4.81776,2.18078 -4.81776,4.82998l0,4.08535c-0.02697,41.87045 -0.93542,67.84283 -15.41665,102.62042z" clip-rule="evenodd"/>
   </g>
   <g stroke="null" id="svg_10">
    <path stroke="null" id="svg_11" fill-rule="evenodd" fill="#f7eb12" d="m217.77549,309.04986c8.70011,-0.02801 17.42719,-1.87656 27.36521,-5.57558c11.48036,-4.2505 22.43762,-10.65377 32.40358,-18.46519c29.3478,-23.01895 50.02344,-58.37603 50.02344,-88.04742l0,-22.41242c-0.9913,0.13811 -2.00957,0.22117 -3.0288,0.22117l-213.49989,0c-1.04621,0 -2.03751,-0.08306 -3.0288,-0.22117l0,22.41242c0,29.6714 20.67564,65.02848 50.02344,88.04742c9.91105,7.78341 20.8134,14.15964 32.23789,18.43718c9.99486,3.72703 18.74988,5.60359 27.50393,5.60359z" clip-rule="evenodd"/>
   </g>
   <g stroke="null" id="svg_12">
    <path stroke="null" id="svg_13" fill-rule="evenodd" fill="#f7eb12" d="m50.08723,473.91241l167.68922,0l163.11904,0c-10.98423,-12.7515 -20.48296,-27.43556 -24.77762,-35.44014c-15.27986,-28.51243 -20.06968,-51.61444 -19.32693,-83.46565c12.30596,-1.07687 25.19091,-5.35441 37.57972,-11.75768c-17.61986,-21.55672 -41.35127,-40.07696 -73.25873,-51.50337c9.58062,37.73102 -9.27812,61.02619 -22.29986,76.78616l-61.03561,-59.4809l-61.00767,59.4809c-13.04968,-15.75997 -31.88048,-39.05514 -22.32684,-76.78616c-73.25969,26.21962 -103.51594,89.89597 -114.99631,141.84071c-6.71751,30.47205 0.93542,40.32613 30.6416,40.32613z" clip-rule="evenodd"/>
   </g>
   <g stroke="null" id="svg_14">
    <path stroke="null" id="svg_15" fill-rule="evenodd" fill="#f7eb12" d="m134.44098,291.7446c-9.55268,37.73102 9.27812,61.02619 22.32684,76.78616l61.00767,-59.4809c-8.75502,0 -17.50907,-1.87656 -27.50297,-5.60262c-11.42545,-4.27851 -22.3278,-10.65377 -32.23789,-18.43718c-8.31476,1.8215 -16.16037,4.08438 -23.59365,6.73454z" clip-rule="evenodd"/>
   </g>
   <g stroke="null" id="svg_16">
    <path stroke="null" id="svg_17" fill-rule="evenodd" fill="#f7eb12" d="m217.77549,309.04986l61.03561,59.4809c13.02174,-15.75997 31.88048,-39.05514 22.29986,-76.78616c-7.40535,-2.65016 -15.25192,-4.91304 -23.56572,-6.73454c-9.96596,7.81141 -20.92322,14.21469 -32.40358,18.46519c-9.93899,3.69806 -18.66607,5.54757 -27.36617,5.57461z" clip-rule="evenodd"/>
   </g>
   <g stroke="null" id="svg_18">
    <path stroke="null" id="svg_19" fill-rule="evenodd" fill="#f7eb12" d="m336.79093,355.00662c-0.74371,31.85218 4.04708,54.95419 19.32693,83.46565c4.29466,8.00457 13.79243,22.68864 24.77762,35.44014c11.12199,12.88961 23.70348,23.8196 33.89005,23.8196c20.23538,0 50.02344,-43.11344 58.66767,-59.25973c15.25192,-28.51243 20.04271,-51.61444 19.32693,-83.46565c-27.08969,-2.37394 -57.01551,-20.17659 -77.9946,-42.28478c-11.45243,12.06191 -25.57625,22.85379 -40.41489,30.5271c-12.38978,6.40231 -25.27375,10.68081 -37.57972,11.75768z" clip-rule="evenodd"/>
   </g>
   <g stroke="null" id="svg_20">
    <path stroke="null" fill="#f7eb12" id="svg_21" d="m400.12512,406.34388c-4.22915,-3.24123 -10.27327,-2.42803 -13.50438,1.80895c-3.23111,4.23794 -2.42285,10.29932 1.80437,13.53863l16.46286,12.61435c1.74079,1.33377 3.79853,1.98472 5.84567,1.98472c2.63479,0 5.25128,-1.07977 7.14428,-3.17459l31.4672,-34.83265c3.57118,-3.954 3.27061,-10.06173 -0.67339,-13.64197c-3.94303,-3.58023 -10.03629,-3.27794 -13.60746,0.6751l-25.51748,28.2478l-9.42166,-7.22034z"/>
    <path stroke="null" fill="#f7eb12" id="svg_22" d="m502.41085,354.78932c-0.10982,-4.92463 -3.89872,-8.97521 -8.79163,-9.40402c-22.91738,-2.0079 -51.11878,-17.44143 -71.84933,-39.3159c-1.81882,-1.91808 -4.34186,-3.00461 -6.98147,-3.00558c-0.00096,0 -0.00193,0 -0.00289,0c-2.63768,0 -5.16072,1.0846 -6.97954,3.00075c-9.3051,9.8058 -20.10629,18.31162 -31.25237,24.89936c-19.55814,-21.88896 -43.63058,-38.01593 -71.84451,-48.16749c-0.24566,-0.09948 -0.4942,-0.18833 -0.74853,-0.26753c-2.19742,-0.78037 -4.42086,-1.525 -6.66838,-2.2339c23.86051,-23.85726 39.91009,-55.20916 39.91009,-83.3343l0,-15.17373c11.27902,-4.92366 19.18917,-16.21004 19.18917,-29.31888c0,-13.61686 -8.54886,-25.26347 -20.54558,-29.84621c-4.95167,-48.19453 -38.82053,-88.70803 -85.34408,-102.11144c-1.37471,-6.56456 -7.19245,-11.51044 -14.14213,-11.51044l-34.90928,0c-6.70306,0 -12.33775,4.60495 -13.96391,10.82182c-22.88462,6.11836 -43.78761,19.17795 -59.45955,37.33504c-15.907,18.42945 -25.79879,41.44453 -28.31123,65.46985c-12.0025,4.58563 -20.55425,16.22935 -20.55425,29.84234c0,13.11367 7.92171,24.40294 19.21615,29.32371l0,15.1689c0,28.09907 16.05247,59.46255 39.91201,83.33624c-2.18201,0.68765 -4.34283,1.40717 -6.4786,2.16243c-0.42003,0.11976 -0.82849,0.26753 -1.22636,0.44234c-31.57895,11.42062 -57.94323,30.32525 -78.58996,56.43186c-19.85678,25.10894 -33.9729,56.11605 -41.9553,92.16754c-2.84095,12.88381 -4.97768,29.07453 3.78504,40.01321c8.55946,10.68468 23.87496,12.05419 36.2628,12.05419l63.01821,0c5.32064,0 9.6336,-4.32487 9.6336,-9.65803s-4.31296,-9.65803 -9.6336,-9.65803l-63.01821,0c-11.52468,0 -18.67088,-1.62641 -21.24017,-4.83384c-2.72149,-3.39769 -2.71957,-11.38778 0.00289,-23.7404c10.0122,-45.21117 34.49311,-100.53719 93.47677,-128.4711c-1.81401,32.62772 15.8203,53.95458 27.029,67.49031c1.71574,2.07261 4.21663,3.33202 6.89959,3.47592c2.68103,0.14873 5.3033,-0.84218 7.22905,-2.7197l54.29305,-52.93373l54.31906,52.93566c1.80245,1.75583 4.21277,2.73226 6.71462,2.73226c0.17244,0 0.34488,-0.00483 0.51925,-0.01449c2.68296,-0.14487 5.1848,-1.40717 6.89959,-3.48269c11.19328,-13.54732 28.80158,-34.88673 27.00395,-67.44588c17.11217,8.13786 32.23114,19.02149 45.23265,32.57943c-7.76372,3.01234 -15.39739,4.93718 -22.51565,5.56109c-4.89002,0.42785 -8.67699,4.47553 -8.79163,9.3963c-0.80633,34.53035 4.93433,59.26939 20.46562,88.22513c0.13102,0.24531 5.3794,9.67735 13.55737,21.24766l-160.86092,0c-5.32064,0 -9.6336,4.32487 -9.6336,9.65803s4.31296,9.65803 9.6336,9.65803l176.16101,0c11.61427,12.86836 25.31229,23.82056 38.30224,23.82056c31.34003,0 66.81481,-63.74009 67.15584,-64.37752c15.50625,-28.96057 21.24498,-53.69574 20.47044,-88.22513zm-186.22909,-234.2526l-53.04069,0c-10.02087,-26.24376 -11.91677,-47.88451 -12.25683,-79.65266c34.74744,12.32075 60.00771,43.05839 65.29752,79.65266zm-109.9194,-92.22066l25.28435,0c0.06069,37.3843 1.00575,62.70379 11.1008,92.22066l-47.46668,0c10.07771,-29.51783 11.0218,-54.84022 11.08153,-92.22066zm-19.3279,11.80597c-0.31791,32.18635 -2.15985,53.96037 -12.24238,80.41565l-55.2988,0c5.49501,-37.07041 32.07604,-68.64154 67.54118,-80.41565zm-75.89448,99.73074l64.44687,0c0.56742,0.46165 1.11653,0.52057 1.57702,0l147.47599,0c6.93908,0 12.58437,5.65864 12.58437,12.61628c0,6.97213 -5.64433,12.64429 -12.58437,12.64429l-213.49989,0c-6.95353,0 -12.61135,-5.67216 -12.61135,-12.64429c0,-6.95668 5.65685,-12.61628 12.61135,-12.61628zm6.6048,57.10889l0,-12.53322l200.28933,0l0,12.53322c0,36.8222 -35.58267,82.36271 -76.14784,97.45917c-17.74991,6.61285 -30.35163,6.60706 -48.14296,-0.02125c-40.48521,-15.15828 -75.99852,-60.69105 -75.99852,-97.43792zm39.98137,157.25976c-9.97078,-13.04993 -19.57163,-30.18327 -14.95713,-55.05366c4.24938,-1.3753 8.64038,-2.62988 13.19322,-3.73959c9.71452,7.14501 20.19203,13.0055 31.05392,17.0725c3.49603,1.3019 6.86009,2.37491 10.15093,3.26731l-39.44093,38.45344zm120.31791,-0.00579l-39.46501,-38.45924c3.24845,-0.88371 6.56819,-1.9432 10.01509,-3.22771c10.91583,-4.06217 21.4444,-9.93425 31.2042,-17.10244c4.49697,1.09715 8.8947,2.34014 13.18551,3.73283c4.62509,24.83562 -4.9719,41.98635 -14.93979,55.05656zm187.01711,79.66812c-11.3927,21.31624 -38.07296,54.19024 -50.17662,54.19024s-38.78392,-32.874 -50.18336,-54.20376c-12.7308,-23.73171 -17.95511,-43.52198 -18.23834,-70.46788c10.39273,-1.98279 21.21223,-5.87112 31.85158,-11.30086c0.37378,-0.16322 0.73793,-0.35542 1.09534,-0.56982c12.42349,-6.47378 24.57339,-15.04141 35.47092,-25.22387c20.51765,19.1905 45.49661,32.7243 68.41784,37.09552c-0.30346,26.94976 -5.5268,46.74389 -18.23737,70.48043z"/>
    <path stroke="null" fill="#f7eb12" id="svg_23" d="m156.7129,464.25342c-5.32064,0 -9.6336,4.32487 -9.6336,9.65803s4.31296,9.65803 9.6336,9.65803l0.05491,0c5.32064,0 9.60566,-4.32487 9.60566,-9.65803s-4.33994,-9.65803 -9.66058,-9.65803z"/>
   </g>
  </g>
 </g>
</svg>