<svg width="119.306" height="93" xmlns="http://www.w3.org/2000/svg">

 <g>
  <title>Layer 1</title>
  <g id="icono2">
   <g id="Group_3">
    <g id="Group_2">
     <path fill="#f7eb12" d="m118.985,47.801a2.1,2.1 0 0 0 -0.734,-0.735l0.126,0l-76.977,-46.781a2.094,2.094 0 0 0 -2.1,0l-38.129,20.368a2.1,2.1 0 0 0 -0.188,3.654l77.081,47.919a2.094,2.094 0 0 0 2.138,0.042l38.046,-21.589a2.1,2.1 0 0 0 0.737,-2.878zm-39.683,20.271l-72.953,-45.426l33.898,-18.161l72.826,44.333l-33.771,19.254z" id="Path_3"/>
    </g>
   </g>
   <g id="Group_5">
    <g id="Group_4">
     <path fill="#f7eb12" d="m119.028,58.033a2.1,2.1 0 0 0 -2.872,-0.777l0.126,0l-36.959,21l-76.077,-47.314a2.114,2.114 0 1 0 -2.264,3.57l77.082,47.924a2.094,2.094 0 0 0 2.138,0.042l38.046,-21.568a2.11,2.11 0 0 0 0.78,-2.877z" id="Path_4"/>
    </g>
   </g>
   <g id="Group_7">
    <g id="Group_6">
     <path fill="#f7eb12" d="m118.578,68.164a2.1,2.1 0 0 0 -2.3,-0.682l-37.062,21l-75.97,-47.331a2.114,2.114 0 1 0 -2.264,3.57l77.082,47.966a2.094,2.094 0 0 0 2.138,0.042l38.046,-21.609a2.1,2.1 0 0 0 0.331,-2.956l-0.001,0z" id="Path_5"/>
    </g>
   </g>
   <g id="Group_9">
    <g id="Group_8">
     <path fill="#f7eb12" d="m71.72,24.986a2.094,2.094 0 0 0 -2.947,-0.323a2.144,2.144 0 0 0 -0.163,0.147l-2.243,2.1a9.528,9.528 0 0 0 -2.348,-1.554a6.612,6.612 0 0 0 -3.585,-0.588a5.362,5.362 0 0 0 -2.912,1.323a4.58,4.58 0 0 0 -1.574,2.793a7.445,7.445 0 0 0 0.356,3.4a24.507,24.507 0 0 0 1.09,2.646l-4.193,3.758a3.917,3.917 0 0 1 -0.123,-0.438a5.889,5.889 0 0 1 0.315,-3.006a4.549,4.549 0 0 0 0.293,-1.409a1.851,1.851 0 0 0 -0.545,-1.239a2.137,2.137 0 0 0 -3.081,-0.231a4.454,4.454 0 0 0 -1.321,2.5a7.215,7.215 0 0 0 0.376,3.738a10.759,10.759 0 0 0 1.279,2.531l-2.411,2.1a2.1,2.1 0 0 0 1.4,3.675l-0.042,0.063a2.093,2.093 0 0 0 1.409,-0.525l2.369,-2.1a12.38,12.38 0 0 0 2.621,1.89a6.281,6.281 0 0 0 7.463,-0.945a4.432,4.432 0 0 0 1.409,-2.349a6.8,6.8 0 0 0 -0.105,-3.108a17.66,17.66 0 0 0 -1.629,-4.011l0,-0.126l3.476,-3.129a4.9,4.9 0 0 1 0,1.722a9.3,9.3 0 0 0 -0.176,1.933a2.1,2.1 0 0 0 0.587,1.365a2.451,2.451 0 0 0 1.614,0.924a2.094,2.094 0 0 0 1.53,-0.546a3.151,3.151 0 0 0 0.9,-1.575a5.788,5.788 0 0 0 0,-2.331a9.425,9.425 0 0 0 -0.991,-2.843a12.854,12.854 0 0 0 -0.713,-1.176l2.285,-2.1a2.1,2.1 0 0 0 0.33,-2.956zm-12.879,17.085a2.094,2.094 0 0 1 -1.908,0.316a3.75,3.75 0 0 1 -1.174,-0.525l3.543,-3.086a7.384,7.384 0 0 1 0.356,1.2a2.227,2.227 0 0 1 -0.817,2.095zm2.075,-10.29a4.681,4.681 0 0 1 -0.188,-0.987a1.661,1.661 0 0 1 0.545,-1.533a1.8,1.8 0 0 1 1.785,-0.315a3.65,3.65 0 0 1 0.608,0.273l-2.75,2.562z" id="Path_6"/>
    </g>
   </g>
  </g>
 </g>
</svg>