<svg width="900" height="620" xmlns="http://www.w3.org/2000/svg" preserveAspectRatio="xMidYMid meet">

 <g>
  <title>Layer 1</title>
  <g id="svg_1" fill="#000000" transform="translate(0,620) scale(0.10000000149011612,-0.10000000149011612) ">
   <path fill="#f7eb12" id="svg_2" d="m3327.49999,6193c-8,-3 -27,-17 -42,-31c-44,-41 -38,-82 25,-176c130,-194 151,-244 151,-366c0,-134 -53,-266 -194,-485c-154,-239 -199,-355 -207,-539c-9,-181 28,-339 111,-474c66,-108 164,-183 219,-166c42,12 77,55 77,94c0,36 -3,41 -113,202c-71,105 -91,166 -91,278c1,149 40,246 207,510c93,146 154,275 178,375c18,77 20,109 16,220c-6,144 -22,213 -72,320c-78,163 -193,266 -265,238z"/>
   <path fill="#f7eb12" id="svg_3" d="m4430.49999,6180c-75,-45 -69,-87 37,-242c117,-173 142,-278 105,-438c-19,-81 -95,-236 -176,-360c-148,-227 -203,-364 -215,-544c-18,-266 127,-590 286,-637c68,-20 139,38 126,104c-4,17 -42,85 -86,149c-93,137 -120,211 -120,325c0,111 43,232 143,396c210,346 239,410 260,581c31,257 -96,587 -256,665c-53,26 -64,26 -104,1z"/>
   <path fill="#f7eb12" id="svg_4" d="m5577.49999,6193c-8,-3 -27,-17 -42,-31c-45,-41 -39,-85 25,-177c128,-187 151,-243 151,-365c0,-131 -57,-274 -190,-478c-82,-125 -159,-275 -186,-362c-20,-65 -23,-96 -23,-230c0,-174 12,-235 70,-356c54,-112 117,-188 180,-219c61,-30 84,-28 128,13c20,19 27,35 27,62c0,36 -3,41 -113,202c-71,105 -91,166 -91,278c1,150 33,231 192,485c164,261 212,393 212,582c0,113 -17,207 -55,308c-68,182 -203,318 -285,288z"/>
   <path fill="#f7eb12" id="svg_5" d="m4322.49999,3603c-242,-20 -551,-109 -745,-215c-215,-117 -330,-207 -577,-452l-193,-190l-112,27c-182,43 -240,50 -387,44c-462,-17 -873,-296 -1081,-734c-35,-73 -92,-252 -114,-354l-6,-26l-422,-7c-493,-9 -621,-17 -658,-44c-33,-25 -47,-64 -33,-95c15,-32 230,-138 852,-421c104,-48 433,-194 896,-398c138,-61 255,-115 262,-120c8,-6 12,-73 15,-211c3,-205 9,-238 44,-251c48,-19 933,-29 2419,-29c1580,0 2393,11 2434,33c10,5 22,17 27,27c4,10 10,109 12,220c2,137 7,205 15,211c7,5 66,33 132,62c950,417 1627,726 1803,822c79,43 93,67 72,117c-6,16 -23,34 -37,40c-44,20 -206,29 -649,37l-431,7l-17,81c-71,335 -231,591 -495,789c-309,233 -651,300 -1036,203l-140,-35l-158,164c-175,182 -265,261 -412,360c-122,82 -343,192 -484,240c-236,81 -547,119 -796,98zm424,-239c205,-30 349,-77 551,-180c262,-133 504,-329 616,-499c32,-48 35,-58 23,-69c-8,-8 -43,-39 -78,-69l-64,-55l-110,114c-178,186 -342,307 -553,409c-207,101 -357,130 -654,129c-298,0 -434,-30 -665,-145c-164,-81 -288,-172 -430,-314c-235,-234 -380,-505 -446,-835c-13,-61 -28,-119 -35,-128c-10,-14 -33,-18 -114,-20l-102,-4l7,54c13,106 57,305 86,393c40,124 166,372 243,479c305,425 711,672 1215,741c136,18 382,18 510,-1zm-23,-449c178,-31 369,-109 494,-200c168,-123 364,-313 377,-364c3,-13 1,-45 -6,-69c-12,-45 -75,-167 -91,-177c-5,-3 -37,34 -71,82c-77,108 -202,238 -289,303c-94,69 -235,145 -310,168c-152,46 -428,54 -605,18c-171,-36 -366,-154 -530,-320c-155,-157 -242,-310 -299,-525c-14,-52 -33,-102 -41,-110c-19,-19 -215,-30 -215,-12c0,32 55,263 77,325c67,186 172,354 310,497c228,235 493,360 853,403c62,7 254,-3 346,-19zm-2134,-350c49,-12 91,-25 94,-28c6,-5 -45,-167 -57,-181c-4,-4 -69,-3 -146,4c-110,10 -156,10 -223,1c-312,-45 -547,-242 -656,-549c-10,-29 -28,-62 -40,-73c-22,-20 -108,-38 -186,-39c-37,0 -37,1 -32,33c43,235 133,409 298,573c172,171 349,258 573,284c113,12 272,2 375,-25zm4226,5c68,-11 151,-30 185,-41c198,-67 417,-269 535,-495c37,-72 78,-202 96,-303l6,-34l-92,8c-129,10 -141,17 -173,114c-64,193 -225,371 -430,477c-113,58 -210,78 -344,71c-122,-6 -209,-30 -321,-88c-182,-94 -335,-268 -396,-451c-35,-102 -44,-109 -158,-121c-53,-6 -99,-8 -103,-4c-10,10 31,183 60,257c89,219 318,457 541,561c154,72 353,88 594,49zm-2083,-124c55,-14 129,-41 165,-58c212,-107 379,-308 454,-546c33,-107 34,-130 1,-138c-40,-10 -161,0 -179,15c-9,8 -41,62 -72,121c-99,195 -224,311 -409,380c-83,31 -100,34 -205,34c-106,0 -122,-2 -203,-33c-192,-72 -309,-179 -407,-371c-32,-64 -67,-123 -76,-131c-18,-15 -139,-25 -179,-15c-33,8 -32,31 1,138c100,319 353,557 664,623c104,23 321,13 445,-19zm-2272,-307c27,-7 41,-18 48,-37c11,-29 3,-112 -15,-157l-13,-30l-99,0c-92,0 -104,-2 -166,-33c-49,-24 -82,-50 -123,-97c-31,-35 -70,-68 -87,-74c-17,-6 -73,-11 -124,-11c-108,0 -103,-14 -39,125c48,104 101,167 185,224c116,77 324,121 433,90zm4301,-9c94,-24 175,-66 243,-125c61,-54 103,-117 148,-224l34,-81l-81,0c-118,0 -148,12 -245,102c-105,95 -166,122 -260,115c-76,-6 -120,-30 -225,-126c-88,-80 -117,-91 -231,-91c-91,0 -90,-8 -28,125c114,245 383,372 645,305zm-2094,-136c106,-50 240,-189 240,-249c0,-28 -37,-45 -98,-45c-71,0 -145,23 -214,66c-86,53 -130,53 -215,0c-122,-76 -313,-91 -313,-25c0,58 106,186 191,230c90,46 148,59 249,56c82,-2 104,-7 160,-33zm3608,-533c16,-9 1,-15 -768,-357c-327,-145 -614,-273 -638,-284c-42,-20 -68,-20 -2382,-20l-2339,0l-178,79c-98,43 -257,114 -353,156c-167,74 -671,300 -848,381c-45,20 -79,41 -74,46c15,15 7550,14 7580,-1zm-1540,-999l3,-112l-2251,0l-2250,0l0,109c0,67 4,111 10,113c6,2 1018,3 2248,3l2237,0l3,-113z"/>
  </g>
 </g>
</svg>